<mxfile host="app.diagrams.net" modified="2023-04-14T09:41:36.867Z" agent="Mozilla/5.0 (Macintosh; Intel Mac OS X 10_15_7) AppleWebKit/537.36 (KHTML, like Gecko) Chrome/112.0.0.0 Safari/537.36" etag="RoTcfyI48X0LxpmWj48Z" version="21.1.7" type="github">
  <diagram name="第 1 页" id="VjLRx25UyAQvM7J-4Zl6">
    <mxGraphModel dx="867" dy="480" grid="1" gridSize="10" guides="1" tooltips="1" connect="1" arrows="1" fold="1" page="1" pageScale="1" pageWidth="3300" pageHeight="4681" math="0" shadow="0">
      <root>
        <mxCell id="0" />
        <mxCell id="1" parent="0" />
        <mxCell id="3NXTTbFqcuKSfyPvmecg-1" value="&lt;font style=&quot;font-size: 18px;&quot;&gt;MainPanelProvider&lt;/font&gt;&lt;br&gt;主控面板辅助类&lt;br&gt;（代码生成和绘制）" style="rounded=1;whiteSpace=wrap;html=1;fillColor=#dae8fc;strokeColor=#6c8ebf;" parent="1" vertex="1">
          <mxGeometry x="120" y="180" width="320" height="110" as="geometry" />
        </mxCell>
        <mxCell id="3NXTTbFqcuKSfyPvmecg-7" value="&lt;font style=&quot;&quot;&gt;&lt;span style=&quot;font-size: 18px;&quot;&gt;bundle-html2json&lt;/span&gt;&lt;br&gt;&lt;font size=&quot;1&quot;&gt;(&lt;/font&gt;commonjs or esmodule&lt;font size=&quot;1&quot;&gt;)&lt;br&gt;&lt;/font&gt;&lt;/font&gt;" style="rounded=1;whiteSpace=wrap;html=1;fillColor=#f5f5f5;strokeColor=#666666;fontColor=#333333;" parent="1" vertex="1">
          <mxGeometry x="190" y="360" width="220" height="60" as="geometry" />
        </mxCell>
        <mxCell id="3NXTTbFqcuKSfyPvmecg-8" value="&lt;font style=&quot;&quot;&gt;&lt;font style=&quot;font-size: 18px;&quot;&gt;bundle-json2html&lt;br&gt;&lt;/font&gt;&lt;font style=&quot;border-color: var(--border-color);&quot;&gt;(&lt;/font&gt;commonjs&lt;font style=&quot;border-color: var(--border-color);&quot;&gt;)&lt;/font&gt;&lt;br&gt;&lt;/font&gt;" style="rounded=1;whiteSpace=wrap;html=1;fillColor=#d5e8d4;strokeColor=#82b366;" parent="1" vertex="1">
          <mxGeometry x="620" y="360" width="250" height="60" as="geometry" />
        </mxCell>
        <mxCell id="dqwRUlWCTJc2C8WjFYuJ-1" value="&lt;font style=&quot;&quot;&gt;&lt;font style=&quot;font-size: 18px;&quot;&gt;forCode.js&lt;br&gt;&lt;/font&gt;(处理树和节点相关)&lt;br&gt;&lt;/font&gt;" style="rounded=1;whiteSpace=wrap;html=1;fillColor=#fff2cc;strokeColor=#d6b656;" vertex="1" parent="1">
          <mxGeometry x="120" y="490" width="250" height="60" as="geometry" />
        </mxCell>
        <mxCell id="dqwRUlWCTJc2C8WjFYuJ-2" value="" style="group" vertex="1" connectable="0" parent="1">
          <mxGeometry x="620" y="180" width="320" height="110" as="geometry" />
        </mxCell>
        <mxCell id="3NXTTbFqcuKSfyPvmecg-3" value="" style="rounded=1;whiteSpace=wrap;html=1;fillColor=#f8cecc;strokeColor=#b85450;" parent="dqwRUlWCTJc2C8WjFYuJ-2" vertex="1">
          <mxGeometry width="320" height="110" as="geometry" />
        </mxCell>
        <mxCell id="3NXTTbFqcuKSfyPvmecg-4" value="&lt;font style=&quot;font-size: 14px;&quot;&gt;Parser&lt;/font&gt;" style="rounded=1;whiteSpace=wrap;html=1;" parent="dqwRUlWCTJc2C8WjFYuJ-2" vertex="1">
          <mxGeometry x="20" y="40" width="120" height="60" as="geometry" />
        </mxCell>
        <mxCell id="3NXTTbFqcuKSfyPvmecg-5" value="&lt;font style=&quot;font-size: 14px;&quot;&gt;CodeGenerator&lt;/font&gt;" style="rounded=1;whiteSpace=wrap;html=1;" parent="dqwRUlWCTJc2C8WjFYuJ-2" vertex="1">
          <mxGeometry x="180" y="40" width="120" height="60" as="geometry" />
        </mxCell>
        <mxCell id="3NXTTbFqcuKSfyPvmecg-6" value="&lt;font style=&quot;font-size: 18px;&quot;&gt;bundle-core-esm.js&lt;/font&gt;" style="text;html=1;strokeColor=none;fillColor=none;align=center;verticalAlign=middle;whiteSpace=wrap;rounded=0;" parent="dqwRUlWCTJc2C8WjFYuJ-2" vertex="1">
          <mxGeometry x="78.75" y="9" width="162.5" height="30" as="geometry" />
        </mxCell>
        <mxCell id="dqwRUlWCTJc2C8WjFYuJ-3" value="&lt;font style=&quot;&quot;&gt;&lt;font style=&quot;font-size: 18px;&quot;&gt;initRawComponent.js&lt;br&gt;&lt;/font&gt;(初始化组件相关)&lt;br&gt;&lt;/font&gt;" style="rounded=1;whiteSpace=wrap;html=1;fillColor=#dae8fc;strokeColor=#6c8ebf;" vertex="1" parent="1">
          <mxGeometry x="680" y="490" width="250" height="60" as="geometry" />
        </mxCell>
        <mxCell id="dqwRUlWCTJc2C8WjFYuJ-4" value="&lt;font style=&quot;&quot;&gt;&lt;font style=&quot;font-size: 18px;&quot;&gt;lineHelper.js&lt;br&gt;&lt;/font&gt;(处理绘制区的线条相关)&lt;br&gt;&lt;/font&gt;" style="rounded=1;whiteSpace=wrap;html=1;fillColor=#ffe6cc;strokeColor=#d79b00;" vertex="1" parent="1">
          <mxGeometry x="400" y="490" width="250" height="60" as="geometry" />
        </mxCell>
      </root>
    </mxGraphModel>
  </diagram>
</mxfile>
